<svg xmlns="http://www.w3.org/2000/svg" width="1066.667" height="1066.667" version="1" viewBox="0 0 800 800"><path d="M377.8.4c-.1.2-4.3.6-9.3 1-10.6.7-15.5 1.3-25 2.7-3.8.6-8.6 1.2-10.5 1.5-1.9.2-7.8 1.4-13 2.5s-10.3 2.2-11.4 2.4C295.6 13.2 270 21.2 253 28c-40.4 15.9-79.6 39.6-113.6 68.5-9.8 8.3-37.6 36.4-45.5 46-22 26.7-37.5 50.4-52.4 80.3-6.8 13.6-20.1 45.7-21.1 50.6-.2 1.1-.8 3.2-1.3 4.6-3.7 9.5-11.3 41-13.6 56-.4 2.5-.9 5.4-1.1 6.5-4.6 24.5-5.3 80.3-1.3 109 1.7 12.6 2 14.5 3.4 22.3C19.3 542.1 51.5 609 98 662.2c9.9 11.3 33.5 34.6 44 43.4 49.1 41.1 102.1 67.9 163.5 82.9 18.3 4.5 19.5 4.7 32.2 6.5 3.9.6 8 1.2 9 1.4 1 .2 5 .7 8.8 1.1 3.9.4 8.6.9 10.5 1.2 6.4.9 54.3 1.1 63.5.2 18.6-1.7 21.2-2 27.5-3 3.6-.6 8.1-1.2 10-1.5 1.9-.2 7.8-1.4 13-2.5s10.4-2.2 11.4-2.5c5.2-1 19-4.8 26.1-7 4.4-1.4 8.7-2.7 9.5-2.9 1.5-.4 19.3-7 26.5-10 20.8-8.5 48.1-23.2 68.3-36.7 9.2-6.1 29.4-21.1 32.8-24.3.6-.5 4.1-3.5 7.7-6.5 9.3-7.8 34.9-33.8 43.8-44.5 34.6-41.6 58.2-84.5 75-136 3.1-9.3 9.4-33.3 10.4-39.5.3-1.9 1-5.1 1.5-7 .4-1.9 1.1-5.7 1.5-8.3.3-2.7.8-5.9 1.1-7 4.7-24.2 5.4-78.3 1.3-109.2-5-38.7-14.6-74.2-29.2-108.1-5.2-12-13.5-28.9-18.4-37.2-2.4-4.1-4.3-7.6-4.3-7.8 0-1.9-27.2-41.3-32.1-46.4-.8-.9-3-3.6-4.9-6-5.8-7.5-9.8-11.9-25.5-27.5C665.9 101 661.7 97 655 91.9c-2.4-1.9-5.1-4-6-4.8-3.1-3-23.9-17.9-33-23.8-42-26.9-90.8-46.5-138.5-55.7-4.4-.8-9-1.7-10.2-2-1.1-.2-4.3-.7-7-1.1-2.6-.4-5.7-.8-6.9-1-1.1-.2-5.2-.6-9-1s-8.5-.9-10.4-1.2C430.2.8 378.4 0 377.8.4z"/></svg>